<svg xmlns="http://www.w3.org/2000/svg" width="345.26" height="594.673" viewBox="0 0 345.26 594.673">
  <g id="Layer_1" data-name="Layer 1" transform="translate(-326.692 -154.378)">
    <path id="Path_1600" data-name="Path 1600" d="M418.45,229.175h-9.035V246.5H384.347l-.127-17.327H347.38V212.526l24.178-56.606,21.824,7.762-19.767,46.659h10.859l2.969-19.088h21.972v19.088h9.035Z" transform="translate(23.189 1.729)" fill="#353645"/>
    <path id="Path_1601" data-name="Path 1601" d="M500.62,229.175h-9.056V246.5H466.559l-.127-17.327H429.55V212.526l24.157-56.606,21.845,7.762-19.766,46.659h10.774l2.99-19.088H491.5v19.088h9.056Z" transform="translate(115.291 1.729)" fill="#353645"/>
    <path id="Path_1602" data-name="Path 1602" d="M461.913,193.986a37.115,37.115,0,1,1-10.871-26.266A37.136,37.136,0,0,1,461.913,193.986Z" transform="translate(68.315 2.771)" fill="none" stroke="#231f20" stroke-width="0.1"/>
    <path id="Path_1603" data-name="Path 1603" d="M470.005,196.758a42.417,42.417,0,1,0-23.329,37.921L456.05,250.9a1.315,1.315,0,0,0,1.845.467l5.387-3.415a1.336,1.336,0,0,0,.445-1.782l-9.5-16.416A42.417,42.417,0,0,0,470.005,196.758Zm-42.417,37.136a37.239,37.239,0,1,0-.043,0Z" transform="translate(65.546)" fill="#353645"/>
    <path id="Path_1604" data-name="Path 1604" d="M461.913,193.986a37.115,37.115,0,1,1-10.871-26.266A37.136,37.136,0,0,1,461.913,193.986Z" transform="translate(68.315 2.771)" fill="#d4e3ee"/>
    <path id="Path_1605" data-name="Path 1605" d="M410.1,176.814l-6.681-8.484h.021l-5.217-4.136h0l-1.379-1.654,1.4,1.633h0l5.26,4.072h0l.021.021,6.766,8.4Z" transform="translate(78.627 9.149)" fill="#f8f9fc"/>
    <path id="Path_1606" data-name="Path 1606" d="M411.09,189.537,412.659,183a43.934,43.934,0,0,0,1.294-6.575,8.675,8.675,0,0,0,0-3.309l-1.612-2.948a12.469,12.469,0,0,1-.7-1.527,8.942,8.942,0,0,1-.149-1.675c0-1.124,0-2.248,0-3.351v3.351a10.6,10.6,0,0,0,.17,1.654,10.054,10.054,0,0,0,.721,1.527l1.633,2.927a8.482,8.482,0,0,1,0,3.351,43.735,43.735,0,0,1-1.209,6.617l-1.527,6.553Z" transform="translate(94.599 10.359)" fill="#f8f9fc"/>
    <path id="Path_1607" data-name="Path 1607" d="M425.6,186.673a17.432,17.432,0,0,1-6.469-3.033A4.579,4.579,0,0,1,418,182.219c-.255-.573-.382-1.124-.657-1.675a9.946,9.946,0,0,0-1.888-2.969h0L410.5,176.6H396.6l-4.115-5.069,4.136,5.026h13.892l4.963.954h0a10.075,10.075,0,0,1,1.951,3.012c.255.53.424,1.124.679,1.654a3.861,3.861,0,0,0,1.082,1.336,16.967,16.967,0,0,0,6.363,2.969Z" transform="translate(73.751 19.225)" fill="#f8f9fc"/>
    <path id="Path_1608" data-name="Path 1608" d="M403.654,174l-2.63,2.121h-8.081a6.359,6.359,0,0,1-.3.764c-.127.233-.212.551-.467.679.233-.148.318-.445.445-.679a4.759,4.759,0,0,0,.3-.764H401L403.59,174Z" transform="translate(73.404 21.994)" fill="#f8f9fc"/>
    <path id="Path_1609" data-name="Path 1609" d="M404.383,175.909a8.613,8.613,0,0,0,.3-1.612,2.522,2.522,0,0,0-.276-1.548,26.172,26.172,0,0,1-1.527-2.969h0a10.983,10.983,0,0,0,.551-1.378,3.031,3.031,0,0,0,.127-.742,4.854,4.854,0,0,0-.149-.721l-.657-2.948.721,2.927a4.684,4.684,0,0,0,.17.742,3.03,3.03,0,0,1-.127.764,10.041,10.041,0,0,1-.53,1.4h0a23.924,23.924,0,0,0,1.569,2.906,2.693,2.693,0,0,1,.339,1.654,8.927,8.927,0,0,1-.276,1.675Z" transform="translate(85.251 10.774)" fill="#f8f9fc"/>
    <path id="Path_1610" data-name="Path 1610" d="M403.644,181.227l-2.375,1.273h0l-.488,1.442a9.27,9.27,0,0,1-.573,1.442,18.9,18.9,0,0,1-2.354,1.994h0l-4.242,2.566h0L392.17,191.2l1.421-1.273h0l4.242-2.651h0a19.31,19.31,0,0,0,2.312-1.994,10.034,10.034,0,0,0,.53-1.4l.467-1.463h0L403.5,181.1Z" transform="translate(73.392 29.952)" fill="#f8f9fc"/>
    <path id="Path_1611" data-name="Path 1611" d="M404.946,180.493l-1.633-1.082h0l-.615.361h0l-.573.17h0l-1.188-.106a3.585,3.585,0,0,1-1.1-.382c-.7-.318-1.357-.742-2.015-1.124a17.976,17.976,0,0,0,2.121,1.06,3.771,3.771,0,0,0,1.082.339h1.145l.573-.17h0l.615-.361h0l1.676,1.018Z" transform="translate(79.725 26.847)" fill="#f8f9fc"/>
    <path id="Path_1612" data-name="Path 1612" d="M412.32,176.9l1.145-1.23c.191-.191.318-.424.509-.657a4.954,4.954,0,0,0,.509-.657c.148-.233.318-.467.445-.7s.254-.233.233-.318a2.116,2.116,0,0,0,0-.382,14.831,14.831,0,0,0-.233-1.654c-.424-1.167.382-2.121.785-3.2a27.854,27.854,0,0,0,.806-3.245,24.338,24.338,0,0,1-.764,3.266c-.382,1.018-1.145,2.121-.7,3.16a14.857,14.857,0,0,1,.254,1.654,1.567,1.567,0,0,1,0,.445.34.34,0,0,1-.17.212.652.652,0,0,0,0,.127,4.242,4.242,0,0,1-.445.742,3.181,3.181,0,0,1-.509.657,5.175,5.175,0,0,1-.488.7l-1.145,1.23Z" transform="translate(95.978 11.738)" fill="#f8f9fc"/>
    <path id="Path_1613" data-name="Path 1613" d="M448.366,181.421a17.284,17.284,0,0,1-4.836,1.166,7.189,7.189,0,0,0-3.16.848c-.764.339-1.23,1.676-1.612,2.524s-1.93.721-2.375.679a1.124,1.124,0,0,0-.679.255l-.764-1.082L432.99,186s-.594,1.654-.891,1.124a19.426,19.426,0,0,1-.382-3.754s0-5.366,0-4.963-.594,3.987-.594,3.987l-1.739.976-.933,4.115h0l-1.909-.255a3.411,3.411,0,0,1-.361-.891,6.357,6.357,0,0,1,0-1.188v-1.633s.361-.933.4-.976a3.1,3.1,0,0,0-.276-1.124c-.127-.127,0-.424,0-.424V179.47c0-.382-.17-.551-.17-.742s.212-.339.573-.594,0-1.23,0-1.23v.679l-.806.806v.509a6.376,6.376,0,0,0,0,.785,1.48,1.48,0,0,1,0,.509,4.241,4.241,0,0,0-.445-.891,5.26,5.26,0,0,1-.615-1.676c-.106-.594-1.209-5.048-1.124-4.475s.636,2.375.679,2.948a13.532,13.532,0,0,0,.764,3.712,21.226,21.226,0,0,1,.742,2.269,4.242,4.242,0,0,1-.276,2.121c-.212.573-.467,1.209-.467,1.209v2.121l-.976-.912-.615-2.842-1.909-2.46s-1.124-.954-1.442-1.145-1.082-1.145-1.209-1.145a21.04,21.04,0,0,1-1.824-2.778c-.127-.318-1.336-1.124-1.591-1.379a10.813,10.813,0,0,1-.742-2.121v-1.463l-2.842-3.224s1.379,2.121,1.951,3.1,0,2.587.318,3.16,2.778,3.924,3.351,4.6a17.546,17.546,0,0,0,1.824,1.781l1.824,2.121,2.4,6.363h-2.4l1.888,3.648-6.49.976s-3.415-2.609-3.8-3.075-1.824.551-1.824.551h-2.651s-2.4,2.778-2.778,2.524-11.941,4.369-11.941,4.369l12.577-3.775a27.22,27.22,0,0,1,2.4-1.294c.191,0,1.569-.424,1.888-.424s1.272-.255,1.463,0a21.338,21.338,0,0,0,1.951,1.442l1.251.954,3.669.509c.509,0,2.121,0,2.312.424s1.463,1.124,1.463,1.124l1.039-.848,1,.848,1.463-1.633s2.927,0,3.139.573c0,.148.276.233.573.3a1.994,1.994,0,0,1-.255,1.4,7.958,7.958,0,0,0-.954,2.121,5.262,5.262,0,0,0,.382,2.121,35.285,35.285,0,0,0-.382,4.242,39.332,39.332,0,0,1-3.669,3.33l-1.845,1.888-.763,1.315v1.93s.424-1.76.424-1.888,1.8-2.439,1.8-2.439l2.269-2.121,2.439-2.121.212-5.217a5.731,5.731,0,0,0,.721-1.7,7.509,7.509,0,0,1,1.4-2.4s.658-1.039,1.082-1.739a.828.828,0,0,1,.445,0,9.692,9.692,0,0,1,2.693.954,2.5,2.5,0,0,0,.424,1.209c.467.382-.954.636-.954.636l-.382,2.121,1.569-1.994.212,1.612a10.015,10.015,0,0,0,.848,1.145,10.6,10.6,0,0,0,1.866,1.251h2.121l-2.333-.3-1.845-2.609.827-1.781-1.06-1.421-.827-1.909,1.633,1.591a6.719,6.719,0,0,1,1.654,0c.573.127,1.188,1.506,1.506,1.739s1.145.912,1.315.976l1.845.573,1.718-2.291-1.718,1.4-2.4-1.273a27.875,27.875,0,0,1-2.333-2.715,3.605,3.605,0,0,0-1.527-1.251c-.17,0-1.379-.17-2.439-.276-.658-.679-1.527-1.654-1.379-2.121l3.966-2.8s.806-1.251,1.018-1.633a11.346,11.346,0,0,0,.721-1.591,3.054,3.054,0,0,1,3.033-.976,12.724,12.724,0,0,0,4.242-.806c.763,0,4.242-4.242,4.242-4.242A40.821,40.821,0,0,1,448.366,181.421Z" transform="translate(75.096 15.336)" fill="#f8f9fc"/>
    <path id="Path_1614" data-name="Path 1614" d="M407.51,174.89l-.53,2.566.594,1.591.212-1.527.339-.488.318-.933Z" transform="translate(89.993 22.992)" fill="none" stroke="#d4e3ee" stroke-width="0.12"/>
    <path id="Path_1615" data-name="Path 1615" d="M413.81,180.886s-2.46-.255-2.439-.191.339.636.339.636l-1.061.276h1.061l.721-.17Z" transform="translate(94.106 29.487)" fill="none" stroke="#d4e3ee" stroke-width="0.12"/>
    <path id="Path_1616" data-name="Path 1616" d="M404.95,182.534l2.418-3.054.488.848,1.4.4-1.4,1.1-1.8,1.972Z" transform="translate(87.717 28.136)" fill="none" stroke="#d4e3ee" stroke-width="0.12"/>
    <path id="Path_1617" data-name="Path 1617" d="M415.2,182.21l-2.121,2.651h0a2.587,2.587,0,0,0,.53,1.294,2.885,2.885,0,0,0,1.209.721c.4.191,1,.4,1.039.976a4.513,4.513,0,0,1-.361,1.421h0l2.269,1.039-2.291-.976h0a4.626,4.626,0,0,0,.318-1.4c0-.488-.573-.7-1-.87a3.055,3.055,0,0,1-1.273-.721,2.779,2.779,0,0,1-.594-1.379h0l2.121-2.694Z" transform="translate(96.662 31.196)" fill="#f8f9fc"/>
    <path id="Path_1618" data-name="Path 1618" d="M415.49,184.24a6.639,6.639,0,0,1,3.266-1.739,1.718,1.718,0,0,0,1.718-2.418h0c-.339-.424-.657-.87-.954-1.315a4.794,4.794,0,0,1-.361-.742.424.424,0,0,1,0-.445l.3-.276c.382-.361.742-.785,1.1-1.166l.551-.594a1.869,1.869,0,0,1,.318-.255c.127,0,.106-.191.127-.318a31.033,31.033,0,0,0-.573-6.363h0l1.082-.509-1.082.509h0a31.007,31.007,0,0,1,.636,6.363s0,.318-.17.382a2.326,2.326,0,0,0-.3.233l-.53.594c-.361.4-.721.806-1.1,1.188s-.17.848,0,1.294a13.519,13.519,0,0,0,.954,1.294h0a1.93,1.93,0,0,1-1.845,2.672,6.364,6.364,0,0,0-3.118,1.7Z" transform="translate(99.531 15.381)" fill="#f8f9fc"/>
    <path id="Path_1619" data-name="Path 1619" d="M415.161,181.3l-1.676,2.354c-.53.806-1.145,1.569-1.633,2.4a12.04,12.04,0,0,0-1.145,2.63c-.148.467-.17.933-.276,1.421a6.215,6.215,0,0,1-.53,1.357h0a22.531,22.531,0,0,0-2.418,1.06,12.728,12.728,0,0,0-2.269,1.336c-.467.7,0,1.739-.424,2.524L403.22,198.5l1.548-2.121c.318-.806,0-1.782.4-2.566a11.791,11.791,0,0,1,2.269-1.379,24.33,24.33,0,0,1,2.4-1.082h0a6.369,6.369,0,0,0,.509-1.336,9.523,9.523,0,0,1,1.4-4.115c.488-.848,1.06-1.612,1.612-2.418l1.654-2.4Z" transform="translate(85.778 29.941)" fill="#f8f9fc"/>
    <path id="Path_1620" data-name="Path 1620" d="M408.69,181.409s1.7,1.357,1.76,1.994,0,1.569-.3,1.739a3.522,3.522,0,0,0-.827,1.124,3.838,3.838,0,0,0-.318,1.76,10.243,10.243,0,0,1-.488,1.866,10.138,10.138,0,0,0,.827-1.888,4.244,4.244,0,0,1,.148-1.1,4.832,4.832,0,0,1,.318-.764,8.608,8.608,0,0,1,.848-.891c.127,0,.721-.679.721-.679v-.657s0-.148.424-.806a13.76,13.76,0,0,0,.806-1.569l-.785-1.506Z" transform="translate(91.719 28.753)" fill="#f8f9fc"/>
    <path id="Path_1621" data-name="Path 1621" d="M401.234,421.856l-10.6,1.315a21,21,0,0,1,3.605-5.451Z" transform="translate(71.666 295.172)" fill="#404b60"/>
    <path id="Path_1622" data-name="Path 1622" d="M403.465,421.012c-1.951,1.76-5.217,4.857-8.483,7.974l-5.62,5.451a20.36,20.36,0,0,1,.467-9.056,25.009,25.009,0,0,1,1.421-3.966c3.605-.424,7.762-.933,10.6-1.315Z" transform="translate(69.903 297.84)" fill="#404b60"/>
    <path id="Path_1623" data-name="Path 1623" d="M402.3,428.217c-.106.445-.212.848-.276,1.251l-9.756-1.1.17-.615,12.386-5.62a23.519,23.519,0,0,0-2.524,6.087Z" transform="translate(73.505 300.115)" fill="#404b60"/>
    <path id="Path_1624" data-name="Path 1624" d="M394.775,425.08l-3.139,11.771a15.951,15.951,0,0,1-2.121-5.069,11.915,11.915,0,0,1-.276-1.251Z" transform="translate(70.108 303.422)" fill="#404b60"/>
    <path id="Path_1625" data-name="Path 1625" d="M405.747,441.178a27.115,27.115,0,0,1-5.96-.212,24.315,24.315,0,0,1-2.587-.467l3.8-11.75Z" transform="translate(79.031 307.535)" fill="#404b60"/>
    <path id="Path_1626" data-name="Path 1626" d="M414.862,437.378a17.221,17.221,0,0,1-8.165,3.945,22.354,22.354,0,0,1-3.8.382l5.62-13.764Z" transform="translate(85.419 306.628)" fill="#404b60"/>
    <path id="Path_1627" data-name="Path 1627" d="M418.138,427.8h0a19.089,19.089,0,0,1-5.069,8.908l-.636.594-6.363-9.459Z" transform="translate(88.973 306.471)" fill="#404b60"/>
    <path id="Path_1628" data-name="Path 1628" d="M419.049,429.858l-11.962,1.718-5.748.806a7.507,7.507,0,0,0,1.548-3.881,13.019,13.019,0,0,0-.17-4.92l16.543,1.442a25.2,25.2,0,0,1-.212,4.836Z" transform="translate(83.671 301.74)" fill="#404b60"/>
    <path id="Path_1629" data-name="Path 1629" d="M420.158,432.485l-16.522-1.442a10.171,10.171,0,0,0-.339-1.145c-.276-.7-.594-1.463-1-2.29l5.281-9.077,11.941,9.947h0c.127.488.233,1,.339,1.527A18.051,18.051,0,0,1,420.158,432.485Z" transform="translate(84.747 296.08)" fill="#404b60"/>
    <path id="Path_1630" data-name="Path 1630" d="M409.922,418.65l-5.3,9.077c-.636-1.251-1.421-2.651-2.4-4.242a52.465,52.465,0,0,1-3.118-5.472,5.061,5.061,0,0,1-.276-.594Z" transform="translate(80.857 294.836)" fill="#404b60"/>
    <path id="Path_1631" data-name="Path 1631" d="M416.983,428.007,405,418.06l8.059.87c.976,1.76,1.782,3.33,2.4,4.687a24.734,24.734,0,0,1,1.527,4.39Z" transform="translate(87.773 295.553)" fill="#404b60"/>
    <path id="Path_1632" data-name="Path 1632" d="M419.442,425.14l-8.059-.87-11.071-1.188a21.216,21.216,0,0,1-1.251-3.86c2.015-2.121,4.751-5.026,7.211-7.593l8.335,1.124a11.855,11.855,0,0,0,.87,5.048,48.163,48.163,0,0,0,3.181,5.96Z" transform="translate(81.115 288.346)" fill="#404b60"/>
    <path id="Path_1633" data-name="Path 1633" d="M406.172,411.957c-2.46,2.588-5.175,5.451-7.19,7.614-.106-.4-.17-.827-.255-1.251a24.319,24.319,0,0,1,0-7.359Z" transform="translate(80.429 287.595)" fill="#404b60"/>
    <path id="Path_1634" data-name="Path 1634" d="M395.31,441.241a18.241,18.241,0,0,1-1.845-1.485,17.771,17.771,0,0,1-2.884-3.351l2.969-11.156Z" transform="translate(71.61 303.612)" fill="#404b60"/>
    <path id="Path_1635" data-name="Path 1635" d="M404.546,423.124h0l-12.386,5.62c3.245-3.118,6.511-6.235,8.484-7.974Z" transform="translate(73.381 298.591)" fill="#404b60"/>
    <path id="Path_1636" data-name="Path 1636" d="M404.518,433.148h0l-5.239,11.2a22.822,22.822,0,0,1-5.6-2.884l-1.76-15.991,9.756,1.124a7.826,7.826,0,0,0,.17,3.966,4.072,4.072,0,0,0,2.672,2.587Z" transform="translate(73.112 303.859)" fill="#404b60"/>
    <path id="Path_1637" data-name="Path 1637" d="M409.448,427.68l-3.754,14.4q-.785.127-1.654.191l-4.73-12.449h.424a4.051,4.051,0,0,0,3.775-1.209l.17-.191Z" transform="translate(81.395 306.336)" fill="#404b60"/>
    <path id="Path_1638" data-name="Path 1638" d="M401.7,422.415c-2.821.361-7,.891-10.6,1.315a20.36,20.36,0,0,1,3.606-5.429Z" transform="translate(72.193 295.822)" fill="#8a8fa5"/>
    <path id="Path_1639" data-name="Path 1639" d="M402.861,421.062c-1.951,1.76-5.217,4.857-8.483,7.974l-5.62,5.451a20.659,20.659,0,0,1,.467-9.056,25.008,25.008,0,0,1,1.421-3.966c3.606-.424,7.784-.933,10.6-1.315Z" transform="translate(69.234 297.896)" fill="#8a8fa5"/>
    <path id="Path_1640" data-name="Path 1640" d="M401.681,428.217c-.106.445-.212.848-.276,1.251l-9.735-1.1.149-.615,12.407-5.62A22.843,22.843,0,0,0,401.681,428.217Z" transform="translate(72.832 300.115)" fill="#8a8fa5"/>
    <path id="Path_1641" data-name="Path 1641" d="M394.176,425.13,391.037,436.9a15.951,15.951,0,0,1-2.121-5.069,11.873,11.873,0,0,1-.276-1.251Z" transform="translate(69.436 303.478)" fill="#8a8fa5"/>
    <path id="Path_1642" data-name="Path 1642" d="M405.146,441.32a30.05,30.05,0,0,1-5.96-.212c-.891-.127-1.739-.276-2.566-.467l3.8-11.771Z" transform="translate(78.38 307.67)" fill="#8a8fa5"/>
    <path id="Path_1643" data-name="Path 1643" d="M414.262,437.417a16.967,16.967,0,0,1-8.165,3.924,18.743,18.743,0,0,1-3.8.382L408.026,428Z" transform="translate(84.747 306.695)" fill="#8a8fa5"/>
    <path id="Path_1644" data-name="Path 1644" d="M417.549,427.84h0a19.089,19.089,0,0,1-5.09,8.886l-.636.594-6.363-9.438Z" transform="translate(88.289 306.515)" fill="#8a8fa5"/>
    <path id="Path_1645" data-name="Path 1645" d="M418.459,429.988l-11.962,1.7-5.748.827a7.488,7.488,0,0,0,1.548-3.881,13,13,0,0,0-.17-4.92l16.543,1.421A25.444,25.444,0,0,1,418.459,429.988Z" transform="translate(83.009 301.886)" fill="#8a8fa5"/>
    <path id="Path_1646" data-name="Path 1646" d="M419.589,432.594l-16.543-1.421a10.6,10.6,0,0,0-.339-1.166,21.932,21.932,0,0,0-1-2.269l5.3-9.077,11.94,9.926h0l.318,1.527a23.357,23.357,0,0,1,.318,2.482Z" transform="translate(84.085 296.226)" fill="#8a8fa5"/>
    <path id="Path_1647" data-name="Path 1647" d="M409.332,418.73l-5.3,9.077a44.03,44.03,0,0,0-2.4-4.242,56.65,56.65,0,0,1-3.118-5.472l-.276-.594Z" transform="translate(80.196 294.926)" fill="#8a8fa5"/>
    <path id="Path_1648" data-name="Path 1648" d="M416.371,428.116,404.43,418.19l8.059.848c1,1.781,1.8,3.33,2.418,4.687A25.99,25.99,0,0,1,416.371,428.116Z" transform="translate(87.134 295.699)" fill="#8a8fa5"/>
    <path id="Path_1649" data-name="Path 1649" d="M418.84,425.28l-8.059-.87-11.071-1.188a19.085,19.085,0,0,1-1.23-3.86c1.994-2.121,4.73-5.027,7.19-7.593L414,412.894a11.793,11.793,0,0,0,.87,5.048,46.671,46.671,0,0,0,3.181,5.96Z" transform="translate(80.465 288.503)" fill="#8a8fa5"/>
    <path id="Path_1650" data-name="Path 1650" d="M405.582,412.1c-2.46,2.566-5.175,5.451-7.19,7.593l-.254-1.23a24.468,24.468,0,0,1,0-7.381Z" transform="translate(79.768 287.73)" fill="#8a8fa5"/>
    <path id="Path_1651" data-name="Path 1651" d="M394.71,441.291a18.232,18.232,0,0,1-1.845-1.485,17.782,17.782,0,0,1-2.884-3.351l2.969-11.156Z" transform="translate(70.938 303.668)" fill="#8a8fa5"/>
    <path id="Path_1652" data-name="Path 1652" d="M403.916,423.174h0l-12.386,5.62c3.245-3.118,6.511-6.235,8.483-7.975Z" transform="translate(72.675 298.647)" fill="#8a8fa5"/>
    <path id="Path_1653" data-name="Path 1653" d="M403.918,433.2h0l-5.239,11.2a23.207,23.207,0,0,1-5.6-2.884l-1.76-15.991,9.756,1.1a7.911,7.911,0,0,0,.17,3.987,4.072,4.072,0,0,0,2.672,2.588Z" transform="translate(72.44 303.915)" fill="#8a8fa5"/>
    <path id="Path_1654" data-name="Path 1654" d="M408.858,427.81l-3.733,14.4-1.654.17-4.751-12.428h.424a4.029,4.029,0,0,0,3.775-1.188l.191-.191Z" transform="translate(80.734 306.482)" fill="#8a8fa5"/>
    <path id="Path_1655" data-name="Path 1655" d="M418.69,377.271a9.289,9.289,0,0,1-8.314,5.684,22.612,22.612,0,0,1-9.056-2.121l11.538-4.942,7.041-3.033a9.267,9.267,0,0,1-1.209,4.411Z" transform="translate(83.648 244.89)" fill="#404b60"/>
    <path id="Path_1656" data-name="Path 1656" d="M407.153,385.112c-.636-.3-1.272-.615-1.93-.976l-11.983-6.363L399.094,367Z" transform="translate(74.592 238.322)" fill="#404b60"/>
    <path id="Path_1657" data-name="Path 1657" d="M412.683,368.639l-.87,1.633-15.5,4.687,8.229-15.419Z" transform="translate(78.033 229.96)" fill="#404b60"/>
    <path id="Path_1658" data-name="Path 1658" d="M415.963,380.115l-7.147,3.012v-.255L405.21,365.46a6.828,6.828,0,0,0,2.121.7l6.363,6.617a13.825,13.825,0,0,1-2.121-.318,13.192,13.192,0,0,1,4.242,5.451A6,6,0,0,1,415.963,380.115Z" transform="translate(88.009 236.596)" fill="#404b60"/>
    <path id="Path_1659" data-name="Path 1659" d="M420.745,371.129a7.254,7.254,0,0,1-4.242,3.839,10.352,10.352,0,0,1-3.521.424l-6.363-6.638a2.67,2.67,0,0,0,1.082,0,3.606,3.606,0,0,0,2.312-2.121,3.353,3.353,0,0,0,.445-1.591h0l10.6-1.972A8,8,0,0,1,420.745,371.129Z" transform="translate(89.589 233.917)" fill="#404b60"/>
    <path id="Path_1660" data-name="Path 1660" d="M426.829,368.4l-10.6,1.972a2.65,2.65,0,0,0-.233-1.209,7.041,7.041,0,0,0-3.033-2.524l-1.485-.785-2.439,4.6-8.165-9.1.679-1.251c2.863-.742,7.508-1.824,10.944-2.609l3.224,1.718a29.861,29.861,0,0,1,10.6,8.229A4.185,4.185,0,0,0,426.829,368.4Z" transform="translate(83.144 227.673)" fill="#404b60"/>
    <path id="Path_1661" data-name="Path 1661" d="M411.714,359.376c-3.436.785-8.059,1.866-10.944,2.609l3.5-6.575Z" transform="translate(83.032 225.331)" fill="#404b60"/>
    <path id="Path_1662" data-name="Path 1662" d="M418,383.446,414.415,366.1l-.53-.276-1.718-.912-15.461,4.623-.106.191,8.165,18.155,1.845.827,11.538-4.942Zm-7.02-2.354a8.609,8.609,0,0,1-4.242-1.272l-1.951-1.039,3.966-7.487,2.375,1.251a6.894,6.894,0,0,1,3.118,2.842,3.8,3.8,0,0,1-.318,3.521,3.521,3.521,0,0,1-2.948,2.185Z" transform="translate(78.358 235.979)" fill="#404b60"/>
    <path id="Path_1663" data-name="Path 1663" d="M417.911,377.079a9.374,9.374,0,0,1-8.314,5.705,23.332,23.332,0,0,1-9.077-2.121l11.538-4.942,7.063-3.012a9.183,9.183,0,0,1-1.209,4.369Z" transform="translate(82.752 244.722)" fill="#8a8fa5"/>
    <path id="Path_1664" data-name="Path 1664" d="M406.353,384.931l-1.93-.954-11.983-6.363,5.726-10.774Z" transform="translate(73.695 238.142)" fill="#8a8fa5"/>
    <path id="Path_1665" data-name="Path 1665" d="M411.893,368.457l-.87,1.654-15.5,4.666,8.208-15.4Z" transform="translate(77.147 229.781)" fill="#8a8fa5"/>
    <path id="Path_1666" data-name="Path 1666" d="M415.162,379.934l-7.147,3.012v-.255L404.43,365.3a7.359,7.359,0,0,0,2.121.679l6.363,6.617a11.537,11.537,0,0,1-2.121-.318,13.3,13.3,0,0,1,4.242,5.472,6.362,6.362,0,0,1,.127,2.185Z" transform="translate(87.134 236.416)" fill="#8a8fa5"/>
    <path id="Path_1667" data-name="Path 1667" d="M419.955,370.948a7.338,7.338,0,0,1-4.242,3.86,10.779,10.779,0,0,1-3.521.4l-6.363-6.617a3.2,3.2,0,0,0,1.1,0,3.585,3.585,0,0,0,2.312-2.121,3.351,3.351,0,0,0,.445-1.591h0l10.6-1.972a8,8,0,0,1-.339,8.038Z" transform="translate(88.703 233.737)" fill="#8a8fa5"/>
    <path id="Path_1668" data-name="Path 1668" d="M426.041,368.231l-10.6,1.972a2.269,2.269,0,0,0-.254-1.188,7.02,7.02,0,0,0-3.054-2.545l-1.463-.785-2.46,4.6-8.144-9.077.679-1.273c2.863-.742,7.487-1.824,10.944-2.609l3.2,1.718a29.481,29.481,0,0,1,10.6,8.229,7.815,7.815,0,0,1,.552.954Z" transform="translate(82.236 227.483)" fill="#8a8fa5"/>
    <path id="Path_1669" data-name="Path 1669" d="M410.924,359.206c-3.436.806-8.081,1.866-10.944,2.609l3.5-6.575Z" transform="translate(82.146 225.14)" fill="#8a8fa5"/>
    <path id="Path_1670" data-name="Path 1670" d="M417.2,383.3l-3.669-17.37-.509-.276-1.718-.912-15.482,4.645v.17l8.165,18.155,1.845.827,11.516-4.942Zm-7.02-2.354a8.844,8.844,0,0,1-4.242-1.294l-1.972-1.039,3.987-7.487,2.354,1.273a6.723,6.723,0,0,1,3.139,2.821,3.86,3.86,0,0,1-.339,3.521A3.478,3.478,0,0,1,410.178,380.944Z" transform="translate(77.484 235.789)" fill="#8a8fa5"/>
    <path id="Path_1671" data-name="Path 1671" d="M453.484,380.63l3.754,10.6L445,385.063Z" transform="translate(132.608 253.599)" fill="#404b60"/>
    <path id="Path_1672" data-name="Path 1672" d="M457.07,389.273l1.951,5.578c-2.375,2.524-5.6,5.875-6.85,7.169L444.79,383.08h0Z" transform="translate(132.373 256.345)" fill="#404b60"/>
    <path id="Path_1673" data-name="Path 1673" d="M455.654,388.68l1.718,4.92c-2.778.891-6.829,2.121-8.484,2.63l-.148-.382Z" transform="translate(136.8 262.622)" fill="#404b60"/>
    <path id="Path_1674" data-name="Path 1674" d="M458.136,392.46l3.054,8.674-11.58,6.044Z" transform="translate(137.775 266.859)" fill="#404b60"/>
    <path id="Path_1675" data-name="Path 1675" d="M463.667,392.541l.891,2.524-8.484,14.7-13.595-19.7,15.037,10.753-2.121-5.642C456.838,394.726,460.889,393.432,463.667,392.541Z" transform="translate(129.783 264.169)" fill="#404b60"/>
    <path id="Path_1676" data-name="Path 1676" d="M461.914,406.227l-15.037-10.774-.233-.148-9.014-6.469L446.9,384Z" transform="translate(124.347 257.377)" fill="#404b60"/>
    <path id="Path_1677" data-name="Path 1677" d="M447.085,393.3h0l8.187,22.821-.382.191c-.212-.149-16.84-29.459-16.84-29.459Z" transform="translate(124.818 260.571)" fill="#404b60"/>
    <path id="Path_1678" data-name="Path 1678" d="M455.06,417.069l-9.417,4.92,1.082-10.117.636,1.018L438.22,387.61S454.848,416.92,455.06,417.069Z" transform="translate(125.008 261.423)" fill="#404b60"/>
    <path id="Path_1679" data-name="Path 1679" d="M446.3,404.776l-1.082,10.1-1.527.806-.042-.085-1.7-7.529-.551-2.5-2.99-13.34Z" transform="translate(125.221 266.59)" fill="#404b60"/>
    <path id="Path_1680" data-name="Path 1680" d="M446.155,406.076l1.676,7.55L434.49,394.92Z" transform="translate(120.828 269.616)" fill="#404b60"/>
    <path id="Path_1681" data-name="Path 1681" d="M441.958,394.765l-6.766,6.808-1.272-1.781,3.69-11.962Z" transform="translate(120.189 261.669)" fill="#404b60"/>
    <path id="Path_1682" data-name="Path 1682" d="M439.858,388.09l-3.69,11.962-5.217-7.3Z" transform="translate(116.86 261.961)" fill="#404b60"/>
    <path id="Path_1683" data-name="Path 1683" d="M442.6,393.533l2.99,13.319.573,2.5L434.5,398.2h0l6.766-6.829Z" transform="translate(120.839 265.637)" fill="#404b60"/>
    <path id="Path_1684" data-name="Path 1684" d="M453.282,381l3.733,10.6-12.195-6.257Z" transform="translate(132.406 254.014)" fill="#8a8fa5"/>
    <path id="Path_1685" data-name="Path 1685" d="M456.85,389.674l1.951,5.557c-2.375,2.524-5.6,5.875-6.85,7.169L444.57,383.46h0Z" transform="translate(132.126 256.771)" fill="#8a8fa5"/>
    <path id="Path_1686" data-name="Path 1686" d="M455.384,389.08l1.718,4.942c-2.778.891-6.829,2.121-8.484,2.609l-.148-.382Z" transform="translate(136.497 263.071)" fill="#8a8fa5"/>
    <path id="Path_1687" data-name="Path 1687" d="M457.916,392.87l3.054,8.653-11.58,6.044Z" transform="translate(137.529 267.319)" fill="#8a8fa5"/>
    <path id="Path_1688" data-name="Path 1688" d="M463.448,392.951l.891,2.5-8.483,14.7L442.26,390.47,457.3,401.223l-2.121-5.663C456.555,395.115,460.669,393.842,463.448,392.951Z" transform="translate(129.537 264.629)" fill="#8a8fa5"/>
    <path id="Path_1689" data-name="Path 1689" d="M461.705,406.627l-15.037-10.753-.233-.17-9.035-6.448,9.289-4.857Z" transform="translate(124.089 257.825)" fill="#8a8fa5"/>
    <path id="Path_1690" data-name="Path 1690" d="M446.809,393.719h0l8.293,22.8-.382.191c-.212-.148-16.84-29.459-16.84-29.459Z" transform="translate(124.627 261.019)" fill="#8a8fa5"/>
    <path id="Path_1691" data-name="Path 1691" d="M454.84,417.48l-9.417,4.92,1.082-10.117.636,1.018L438,388S454.628,417.332,454.84,417.48Z" transform="translate(124.762 261.86)" fill="#8a8fa5"/>
    <path id="Path_1692" data-name="Path 1692" d="M446.08,405.164,445,415.281l-1.527.785-.042-.085-1.7-7.529-.551-2.5-2.99-13.319Z" transform="translate(124.975 267.05)" fill="#8a8fa5"/>
    <path id="Path_1693" data-name="Path 1693" d="M445.914,406.476l1.7,7.55L434.27,395.32Z" transform="translate(120.581 270.065)" fill="#8a8fa5"/>
    <path id="Path_1694" data-name="Path 1694" d="M441.738,395.154l-6.766,6.829-1.272-1.8,3.69-11.941Z" transform="translate(119.942 262.129)" fill="#8a8fa5"/>
    <path id="Path_1695" data-name="Path 1695" d="M439.638,388.5l-3.69,11.941-5.217-7.3Z" transform="translate(116.613 262.42)" fill="#8a8fa5"/>
    <path id="Path_1696" data-name="Path 1696" d="M442.382,393.922l2.99,13.34.551,2.5L434.28,398.588h0l6.744-6.808Z" transform="translate(120.592 266.097)" fill="#8a8fa5"/>
    <path id="Path_1697" data-name="Path 1697" d="M477.4,350.9l-1.654,5.747a10.6,10.6,0,0,0-4.072-.573l-.933.106,5.175-5.663C476.4,350.626,476.912,350.753,477.4,350.9Z" transform="translate(161.459 219.85)" fill="#404b60"/>
    <path id="Path_1698" data-name="Path 1698" d="M481.7,350.817l-5.154,5.663a9.588,9.588,0,0,0-3.393,1.358,9.056,9.056,0,0,0-2.354,2.121,14.071,14.071,0,0,0-1.76,2.906l-3.8-3.1a11.627,11.627,0,0,1,1.336-1.739,8.485,8.485,0,0,1,1.93-1.633H468l12.068-5.875a13.761,13.761,0,0,1,1.633.3Z" transform="translate(155.294 219.85)" fill="#404b60"/>
    <path id="Path_1699" data-name="Path 1699" d="M480.74,351l-12.068,5.854a16.039,16.039,0,0,1-3.5,0l-.4-7.3a8.483,8.483,0,0,0,8.7,2.227,28.026,28.026,0,0,1,5.684-.827,13.257,13.257,0,0,1,1.591.042Z" transform="translate(154.768 218.774)" fill="#404b60"/>
    <path id="Path_1700" data-name="Path 1700" d="M468.614,350.661l.4,7.3a12.133,12.133,0,0,1-2.63-.594A10.838,10.838,0,0,1,461,352.549h0l6.49-3.309a10.7,10.7,0,0,0,1.124,1.421Z" transform="translate(150.542 218.415)" fill="#404b60"/>
    <path id="Path_1701" data-name="Path 1701" d="M479.338,350.3a11.772,11.772,0,0,1-2.269,1.845,9.906,9.906,0,0,1-4.836,1.675,7.783,7.783,0,0,1-4.369-1.06,9.286,9.286,0,0,1-1.485-1.1c1.124-1.1,3.372-3.415,4.772-4.814a5.005,5.005,0,0,0,1.294,1.251,1.76,1.76,0,0,0,1.994,0,1.867,1.867,0,0,0,.594-.551Z" transform="translate(156.572 215.725)" fill="#404b60"/>
    <path id="Path_1702" data-name="Path 1702" d="M477.34,347.538v.318a7.911,7.911,0,0,1-2.121,3.881l-4.242-2.863a1.783,1.783,0,0,0,.3-1.209,6.977,6.977,0,0,0-1.124-2.715Z" transform="translate(160.798 213.607)" fill="#404b60"/>
    <path id="Path_1703" data-name="Path 1703" d="M477.128,344.589a10.2,10.2,0,0,1,1.654,4.433l-10.032-8.7h.679a7.91,7.91,0,0,1,4.348,1.039A9.545,9.545,0,0,1,477.128,344.589Z" transform="translate(159.229 208.411)" fill="#404b60"/>
    <path id="Path_1704" data-name="Path 1704" d="M482.461,349.35h0a8.032,8.032,0,0,1,0,2.121l-7.275-2.587h0a1.211,1.211,0,0,0-.17-.276A6.914,6.914,0,0,0,472.9,346.3a1.76,1.76,0,0,0-1.972,0,2.12,2.12,0,0,0-.742.742l-5.111-1.824a10.9,10.9,0,0,1,3.224-3.054,10.051,10.051,0,0,1,4.136-1.591Z" transform="translate(155.104 208.697)" fill="#404b60"/>
    <path id="Path_1705" data-name="Path 1705" d="M475.284,345.04a1.91,1.91,0,0,0-.191,1,7.76,7.76,0,0,0,1.315,2.927c.276.445.552.827.806,1.166-1.379,1.4-3.648,3.711-4.772,4.814a10.205,10.205,0,0,1-1.866-2.121,10.73,10.73,0,0,1-1.442-3.33,2.121,2.121,0,0,0-1.569.318,1.887,1.887,0,0,0-.827,1.866,8.484,8.484,0,0,0,1.442,3.372l.212.318-6.49,3.309a12.731,12.731,0,0,1-1.251-2.46c1.379-3.16,3.309-7.508,4.666-10.6a7.274,7.274,0,0,1,3.924-.318,8.478,8.478,0,0,1,.954-2.015Z" transform="translate(150.15 211.735)" fill="#404b60"/>
    <path id="Path_1706" data-name="Path 1706" d="M465.269,344.31c-1.336,3.054-3.266,7.4-4.666,10.6a9.649,9.649,0,0,1-.594-2.4,7.338,7.338,0,0,1,.657-4.242,7.634,7.634,0,0,1,2.863-3.075,8.324,8.324,0,0,1,1.739-.891Z" transform="translate(149.348 212.889)" fill="#404b60"/>
    <path id="Path_1707" data-name="Path 1707" d="M477.048,351.273,475.415,357a10.3,10.3,0,0,0-4.093-.551,6.674,6.674,0,0,0-.912.106l5.154-5.684A11.813,11.813,0,0,1,477.048,351.273Z" transform="translate(161.089 220.242)" fill="#8a8fa5"/>
    <path id="Path_1708" data-name="Path 1708" d="M481.318,351.157l-5.154,5.684a9.249,9.249,0,0,0-3.415,1.336A9.8,9.8,0,0,0,470.4,360.3a15.939,15.939,0,0,0-1.76,2.927l-3.775-3.1a9.443,9.443,0,0,1,1.315-1.76,9.072,9.072,0,0,1,1.951-1.633h-.509l12.068-5.875a13.781,13.781,0,0,1,1.633.3Z" transform="translate(154.869 220.231)" fill="#8a8fa5"/>
    <path id="Path_1709" data-name="Path 1709" d="M480.429,351.341l-12.068,5.875a14.637,14.637,0,0,1-3.478,0l-.4-7.3a8.483,8.483,0,0,0,8.7,2.248,29.362,29.362,0,0,1,5.663-.848A13.667,13.667,0,0,1,480.429,351.341Z" transform="translate(154.442 219.177)" fill="#8a8fa5"/>
    <path id="Path_1710" data-name="Path 1710" d="M468.285,351.032l.424,7.3a13.4,13.4,0,0,1-2.651-.594,11.071,11.071,0,0,1-5.408-4.835h0l6.49-3.309a12.037,12.037,0,0,0,1.145,1.442Z" transform="translate(150.15 218.807)" fill="#8a8fa5"/>
    <path id="Path_1711" data-name="Path 1711" d="M479,350.668a11.094,11.094,0,0,1-2.269,1.824,9.693,9.693,0,0,1-4.836,1.676,7.55,7.55,0,0,1-4.348-1.06,9.308,9.308,0,0,1-1.506-1.082c1.124-1.124,3.393-3.415,4.772-4.836a5.028,5.028,0,0,0,1.315,1.251,1.76,1.76,0,0,0,1.972,0,2.289,2.289,0,0,0,.615-.573Z" transform="translate(156.191 216.117)" fill="#8a8fa5"/>
    <path id="Path_1712" data-name="Path 1712" d="M477.011,347.888v.339a7.91,7.91,0,0,1-2.121,3.86l-4.242-2.842a1.782,1.782,0,0,0,.276-1.209A7.061,7.061,0,0,0,469.8,345.3Z" transform="translate(160.406 213.999)" fill="#8a8fa5"/>
    <path id="Path_1713" data-name="Path 1713" d="M476.809,344.929a10.265,10.265,0,0,1,1.654,4.454l-10.053-8.7h.679a7.8,7.8,0,0,1,4.369,1.039A9.842,9.842,0,0,1,476.809,344.929Z" transform="translate(158.848 208.813)" fill="#8a8fa5"/>
    <path id="Path_1714" data-name="Path 1714" d="M482.11,349.7h0a7.233,7.233,0,0,1,0,2.121l-7.253-2.587h0l-.191-.276a6.683,6.683,0,0,0-2.121-2.312,1.761,1.761,0,0,0-1.972,0,2.123,2.123,0,0,0-.742.742l-5.09-1.8a11.331,11.331,0,0,1,7.359-4.666Z" transform="translate(154.734 209.089)" fill="#8a8fa5"/>
    <path id="Path_1715" data-name="Path 1715" d="M474.965,345.446a1.591,1.591,0,0,0-.191,1,7.38,7.38,0,0,0,1.294,2.927,12.2,12.2,0,0,0,.806,1.166l-4.751,4.835a10.942,10.942,0,0,1-1.888-2.248,10.434,10.434,0,0,1-1.421-3.33,2.12,2.12,0,0,0-1.57.339,1.761,1.761,0,0,0-.827,1.845,8.122,8.122,0,0,0,1.442,3.372,2.767,2.767,0,0,0,.212.318l-6.49,3.309a14.342,14.342,0,0,1-1.273-2.46c1.4-3.16,3.33-7.508,4.666-10.6a7.762,7.762,0,0,1,3.945-.318,7.315,7.315,0,0,1,.954-2.015Z" transform="translate(149.768 212.071)" fill="#8a8fa5"/>
    <path id="Path_1716" data-name="Path 1716" d="M464.948,344.66c-1.357,3.054-3.287,7.4-4.666,10.6a9.5,9.5,0,0,1-.615-2.4,7.359,7.359,0,0,1,.679-4.242,7.72,7.72,0,0,1,2.842-3.075A9.673,9.673,0,0,1,464.948,344.66Z" transform="translate(148.969 213.282)" fill="#8a8fa5"/>
    <path id="Path_1717" data-name="Path 1717" d="M436.206,337.152l-9.056-2.906,8.144-2.566Z" transform="translate(112.6 198.733)" fill="#404b60"/>
    <path id="Path_1718" data-name="Path 1718" d="M435.844,334.353,427.7,336.92V336.9h0l7.126-8.568Z" transform="translate(113.217 194.978)" fill="#404b60"/>
    <path id="Path_1719" data-name="Path 1719" d="M435.013,331.86l-7.126,8.568-.785-10.965-.382-.848,7.232-3.075h0Z" transform="translate(112.118 191.851)" fill="#404b60"/>
    <path id="Path_1720" data-name="Path 1720" d="M429.833,331.842l-10.413,4.411,12.152-12.343Z" transform="translate(103.936 190.023)" fill="#404b60"/>
    <path id="Path_1721" data-name="Path 1721" d="M430.418,327.818l-6.808,8.59,1.633-7.4,4.772-2.036Z" transform="translate(108.632 193.453)" fill="#404b60"/>
    <path id="Path_1722" data-name="Path 1722" d="M432.157,321.061l-1.7-.085,2.078-2.4Z" transform="translate(116.311 184.049)" fill="#404b60"/>
    <path id="Path_1723" data-name="Path 1723" d="M440.817,321.442l-.149.127-9.1-.488.382-2.481Z" transform="translate(117.555 184.072)" fill="#404b60"/>
    <path id="Path_1724" data-name="Path 1724" d="M440.772,320.468l-5.663,5.26-3.669-4.115.233-1.633Z" transform="translate(117.409 185.618)" fill="#404b60"/>
    <path id="Path_1725" data-name="Path 1725" d="M435.728,330.672l-9.989-2.906-.17-.361-.509-2.927,7.084-4.2.212,3.86Z" transform="translate(110.258 185.955)" fill="#404b60"/>
    <path id="Path_1726" data-name="Path 1726" d="M432.669,319.143l-6.872,8.674L423.74,316.28Z" transform="translate(108.778 181.471)" fill="#404b60"/>
    <path id="Path_1727" data-name="Path 1727" d="M432.352,322.723l-7.084,4.2-.149-.848,6.872-8.674.085.021Z" transform="translate(110.325 182.727)" fill="#404b60"/>
    <path id="Path_1728" data-name="Path 1728" d="M432.076,321.6c-.573-.679-1.1-1.251-1.506-1.676h0l1.7.106Z" transform="translate(116.434 185.551)" fill="#404b60"/>
    <path id="Path_1729" data-name="Path 1729" d="M432.707,330.244l-.764.7h0l-3.393-6.532,3.966-4.581,1.506,1.654Z" transform="translate(114.17 185.45)" fill="#404b60"/>
    <path id="Path_1730" data-name="Path 1730" d="M435.623,324.825l-4.963,4.624,1.294-8.738C433.1,321.961,434.478,323.446,435.623,324.825Z" transform="translate(116.535 186.437)" fill="#404b60"/>
    <path id="Path_1731" data-name="Path 1731" d="M435.519,326.866l-7.232,3.075-2.757-5.981,9.989,2.906Z" transform="translate(110.785 190.08)" fill="#404b60"/>
    <line id="Line_8" data-name="Line 8" x1="0.021" transform="translate(546.304 516.945)" fill="#404b60"/>
    <path id="Path_1732" data-name="Path 1732" d="M428.186,335.432l-8.886-2.863.106-.127h0l10.413-4.411Z" transform="translate(103.802 194.642)" fill="#404b60"/>
    <path id="Path_1733" data-name="Path 1733" d="M429.262,329.933l-4.772,2.015,1.739-7.932.127-.106.148.042Z" transform="translate(109.619 190.023)" fill="#404b60"/>
    <path id="Path_1734" data-name="Path 1734" d="M435.736,337.122l-9.056-2.906,8.144-2.566Z" transform="translate(112.074 198.699)" fill="#8a8fa5"/>
    <path id="Path_1735" data-name="Path 1735" d="M435.374,334.323l-8.144,2.566v-.021h0l7.126-8.568Z" transform="translate(112.69 194.944)" fill="#8a8fa5"/>
    <path id="Path_1736" data-name="Path 1736" d="M434.543,331.83l-7.126,8.568-.785-10.965-.382-.87,7.211-3.054h.021Z" transform="translate(111.592 191.817)" fill="#8a8fa5"/>
    <path id="Path_1737" data-name="Path 1737" d="M429.363,331.812l-10.413,4.411L431.1,323.88Z" transform="translate(103.409 189.99)" fill="#8a8fa5"/>
    <path id="Path_1738" data-name="Path 1738" d="M429.927,327.788l-6.787,8.568,1.633-7.4,4.772-2.015Z" transform="translate(108.106 193.42)" fill="#8a8fa5"/>
    <path id="Path_1739" data-name="Path 1739" d="M431.687,321.032l-1.7-.085,2.057-2.4Z" transform="translate(115.784 184.016)" fill="#8a8fa5"/>
    <path id="Path_1740" data-name="Path 1740" d="M440.326,321.412l-.149.127-9.077-.488.382-2.481Z" transform="translate(117.028 184.038)" fill="#8a8fa5"/>
    <path id="Path_1741" data-name="Path 1741" d="M440.247,320.438l-5.663,5.26L431,321.583l.233-1.633Z" transform="translate(116.916 185.585)" fill="#8a8fa5"/>
    <path id="Path_1742" data-name="Path 1742" d="M435.258,330.621l-9.989-2.884-.17-.361-.509-2.927,7.084-4.2.191,3.839Z" transform="translate(109.731 185.921)" fill="#8a8fa5"/>
    <path id="Path_1743" data-name="Path 1743" d="M432.2,319.113l-6.872,8.674L423.27,316.25Z" transform="translate(108.251 181.438)" fill="#8a8fa5"/>
    <path id="Path_1744" data-name="Path 1744" d="M431.893,322.693l-7.084,4.2-.17-.848,6.893-8.674.085.021Z" transform="translate(109.787 182.693)" fill="#8a8fa5"/>
    <path id="Path_1745" data-name="Path 1745" d="M431.606,321.544,430.1,319.89h1.7Z" transform="translate(115.907 185.518)" fill="#8a8fa5"/>
    <path id="Path_1746" data-name="Path 1746" d="M432.2,330.2l-.763.721h0l-3.393-6.532,3.966-4.6,1.506,1.676Z" transform="translate(113.598 185.406)" fill="#8a8fa5"/>
    <path id="Path_1747" data-name="Path 1747" d="M435.163,324.785l-4.963,4.645,1.294-8.759Z" transform="translate(116.019 186.392)" fill="#8a8fa5"/>
    <path id="Path_1748" data-name="Path 1748" d="M435.049,326.836l-7.232,3.075-2.757-5.981,9.989,2.906Z" transform="translate(110.258 190.046)" fill="#8a8fa5"/>
    <line id="Line_9" data-name="Line 9" transform="translate(545.307 516.882)" fill="#8a8fa5"/>
    <path id="Path_1749" data-name="Path 1749" d="M427.728,335.4l-8.908-2.863.127-.127h0L429.361,328Z" transform="translate(103.264 194.608)" fill="#8a8fa5"/>
    <path id="Path_1750" data-name="Path 1750" d="M428.792,329.882l-4.772,2.036,1.739-7.932.127-.106.148.042Z" transform="translate(109.092 189.99)" fill="#8a8fa5"/>
    <path id="Path_1751" data-name="Path 1751" d="M354.1,313.988,350,317.679l-3.2-5.939Z" transform="translate(22.539 176.382)" fill="#404b60"/>
    <path id="Path_1752" data-name="Path 1752" d="M349.217,312.1l3.16,5.96-3.966,3.542-4.051-1.548c.679-2.121,1.739-6.108,2.439-8.717Z" transform="translate(19.804 175.934)" fill="#404b60"/>
    <path id="Path_1753" data-name="Path 1753" d="M346.436,319.76l-5.323,4.751-3.2-3.605Z" transform="translate(12.574 185.372)" fill="#404b60"/>
    <path id="Path_1754" data-name="Path 1754" d="M342.859,314.78l7.19,8.059-1.994,1.76-8.526,1.145-2.269-2.566Z" transform="translate(11.845 179.79)" fill="#404b60"/>
    <path id="Path_1755" data-name="Path 1755" d="M345.627,314.65l-.127.127.636.721-5.6,8.4-7.147-8.017Z" transform="translate(7.508 179.644)" fill="#404b60"/>
    <path id="Path_1756" data-name="Path 1756" d="M339.653,310.37c1.612,2.121,5.069,6.723,7.487,9.671l-5.111-1.972-.212.191L338.19,312.7h0A4.242,4.242,0,0,0,339.653,310.37Z" transform="translate(12.888 174.847)" fill="#404b60"/>
    <path id="Path_1757" data-name="Path 1757" d="M336.416,305.54l3.733,5.748a7.041,7.041,0,0,0-1.315.954l-1.569,1.379,1.379,1.548-6.363-6.087,2.121-1.994C335.186,306.516,335.8,306.007,336.416,305.54Z" transform="translate(6.264 169.433)" fill="#404b60"/>
    <path id="Path_1758" data-name="Path 1758" d="M333.751,308.59c.212,3.075.573,7.253.848,10.413l-5.6-6.235Z" transform="translate(2.587 172.852)" fill="#404b60"/>
    <path id="Path_1759" data-name="Path 1759" d="M348.784,321.974l-.551.488-12.237,1.23-3.775-4.242c-.276-3.16-.636-7.317-.87-10.392l2.121-1.888,6.363,6.087,3.945,4.454.339-.3Z" transform="translate(5.221 171.26)" fill="#404b60"/>
    <path id="Path_1760" data-name="Path 1760" d="M348.143,305.623l-5.387,8.483a3.33,3.33,0,0,0-3.2-1.209l-4.793-5.366a15.736,15.736,0,0,1,7.614-3.542,8.271,8.271,0,0,1,5.769,1.633Z" transform="translate(9.043 167.654)" fill="#404b60"/>
    <path id="Path_1761" data-name="Path 1761" d="M334.69,306l4.814,5.366a4.09,4.09,0,0,0-1.251.509L334.52,306Z" transform="translate(8.774 169.949)" fill="#404b60"/>
    <path id="Path_1762" data-name="Path 1762" d="M352.236,314.277c-.679,2.587-1.76,6.553-2.439,8.717l-3.16-1.209c-2.418-2.948-5.875-7.529-7.487-9.671a3.171,3.171,0,0,0,0-.445,2.948,2.948,0,0,0,0-.848l8.483-1.06a18.2,18.2,0,0,1-.7,2.821Z" transform="translate(13.964 174.163)" fill="#404b60"/>
    <path id="Path_1763" data-name="Path 1763" d="M346.2,306.928a8.971,8.971,0,0,1,2.375,4.73,10.351,10.351,0,0,1,0,3.012l-8.483,1.082a5,5,0,0,0-1.273-2.121v-.106l5.366-8.483A13.218,13.218,0,0,1,346.2,306.928Z" transform="translate(13.594 168.873)" fill="#404b60"/>
    <path id="Path_1764" data-name="Path 1764" d="M339.238,311.91l3.605,5.557-.424.382-4.73-4.56Z" transform="translate(12.328 176.573)" fill="#404b60"/>
    <path id="Path_1765" data-name="Path 1765" d="M353.985,314.358l-4.093,3.69-3.181-5.939Z" transform="translate(22.438 176.797)" fill="#8a8fa5"/>
    <path id="Path_1766" data-name="Path 1766" d="M349.106,312.474l3.16,5.96-3.966,3.542-4.03-1.527c.658-2.121,1.739-6.129,2.418-8.738Z" transform="translate(19.703 176.349)" fill="#8a8fa5"/>
    <path id="Path_1767" data-name="Path 1767" d="M346.336,320.14l-5.3,4.729-3.224-3.605Z" transform="translate(12.462 185.798)" fill="#8a8fa5"/>
    <path id="Path_1768" data-name="Path 1768" d="M342.759,315.15l7.19,8.059-1.994,1.76-8.5,1.145-2.29-2.566Z" transform="translate(11.733 180.205)" fill="#8a8fa5"/>
    <path id="Path_1769" data-name="Path 1769" d="M345.527,315.03l-.127.106.636.721-5.578,8.42-7.169-8.038Z" transform="translate(7.396 180.07)" fill="#8a8fa5"/>
    <path id="Path_1770" data-name="Path 1770" d="M339.6,310.74c1.591,2.121,5.048,6.723,7.466,9.671l-5.175-1.951-.212.191-3.606-5.557h0A4.241,4.241,0,0,0,339.6,310.74Z" transform="translate(12.753 175.262)" fill="#8a8fa5"/>
    <path id="Path_1771" data-name="Path 1771" d="M336.3,305.92l3.733,5.726a7.042,7.042,0,0,0-1.315.954l-1.548,1.4,1.379,1.548-6.363-6.108,2.227-1.994C335.074,306.9,335.711,306.387,336.3,305.92Z" transform="translate(6.163 169.859)" fill="#8a8fa5"/>
    <path id="Path_1772" data-name="Path 1772" d="M333.617,309c.212,3.075.573,7.253.848,10.413l-5.535-6.235Z" transform="translate(2.509 173.311)" fill="#8a8fa5"/>
    <path id="Path_1773" data-name="Path 1773" d="M348.672,322.355l-.551.488-12.237,1.23-3.775-4.242c-.276-3.181-.636-7.338-.848-10.413l2.121-1.888,6.363,6.108,3.966,4.433.318-.3Z" transform="translate(5.12 171.664)" fill="#8a8fa5"/>
    <path id="Path_1774" data-name="Path 1774" d="M348.106,306l-5.366,8.484a3.308,3.308,0,0,0-3.2-1.23l-4.878-5.366a15.63,15.63,0,0,1,7.635-3.521A8.123,8.123,0,0,1,348.106,306Z" transform="translate(8.931 168.064)" fill="#8a8fa5"/>
    <path id="Path_1775" data-name="Path 1775" d="M334.611,306.32l4.793,5.387a4.008,4.008,0,0,0-1.251.488l-3.733-5.748Z" transform="translate(8.662 170.307)" fill="#8a8fa5"/>
    <path id="Path_1776" data-name="Path 1776" d="M352.192,314.648c-.679,2.609-1.739,6.553-2.418,8.717l-3.181-1.188c-2.418-2.969-5.875-7.55-7.487-9.692a3.228,3.228,0,0,0,0-.445,2.991,2.991,0,0,0-.106-.848l8.483-1.06a16.081,16.081,0,0,1-.7,2.821Z" transform="translate(13.796 174.578)" fill="#8a8fa5"/>
    <path id="Path_1777" data-name="Path 1777" d="M346.157,307.3a8.971,8.971,0,0,1,2.375,4.73,10.352,10.352,0,0,1,0,3.012l-8.483,1.082A5.621,5.621,0,0,0,338.776,314l-.106-.106,5.387-8.484a13.852,13.852,0,0,1,2.1,1.888Z" transform="translate(13.426 169.288)" fill="#8a8fa5"/>
    <path id="Path_1778" data-name="Path 1778" d="M339.127,312.28l3.605,5.557-.424.382-4.708-4.56Z" transform="translate(12.227 176.988)" fill="#8a8fa5"/>
    <path id="Path_1779" data-name="Path 1779" d="M383.39,342.41Z" transform="translate(63.551 210.76)" fill="#404b60"/>
    <path id="Path_1780" data-name="Path 1780" d="M384.367,338.026l-7.147-4.772a7.588,7.588,0,0,1,.191-.954c2.121.233,5.663.551,7.444.551-.106.318-.233.679-.339,1.06a6.723,6.723,0,0,0-.149,4.114Z" transform="translate(56.635 199.428)" fill="#404b60"/>
    <path id="Path_1781" data-name="Path 1781" d="M385.79,340.445l-6.363.7a13.12,13.12,0,0,1-1.633-2.566,9.48,9.48,0,0,1-.764-5.769l7.147,4.772h0a7.655,7.655,0,0,0,1.612,2.863Z" transform="translate(56.252 199.999)" fill="#404b60"/>
    <path id="Path_1782" data-name="Path 1782" d="M384.867,345.11a14.229,14.229,0,0,0-2.375-.954,11.023,11.023,0,0,0-2.312-.488l3.266-6.978.615.53Z" transform="translate(59.953 204.348)" fill="#404b60"/>
    <path id="Path_1783" data-name="Path 1783" d="M388.664,342.16l-3.118,5.069h0a10.329,10.329,0,0,0-2.439-1.739l-.827-7.89a23.857,23.857,0,0,0,2.757,1.972C386.416,340.569,387.625,341.333,388.664,342.16Z" transform="translate(62.307 205.368)" fill="#404b60"/>
    <path id="Path_1784" data-name="Path 1784" d="M391.308,344.077l-5.366,2.291a10.817,10.817,0,0,0-2.566-3.818h-.106Z" transform="translate(63.417 210.917)" fill="#404b60"/>
    <path id="Path_1785" data-name="Path 1785" d="M398.4,337.57a22.231,22.231,0,0,1-1.209,2.566,18.667,18.667,0,0,1-2.821,3.711l-5.323-3.8v-.106Z" transform="translate(69.895 205.335)" fill="#404b60"/>
    <path id="Path_1786" data-name="Path 1786" d="M398.186,333.507l-5.3,4.072c0-.891-.3-1.421-.87-1.591s-1.315.148-1.676,1.145l-1.379-4.687a4.961,4.961,0,0,1,1.824-1.124,6.129,6.129,0,0,1,3.839,0A8.187,8.187,0,0,1,398.186,333.507Z" transform="translate(69.795 197.987)" fill="#404b60"/>
    <path id="Path_1787" data-name="Path 1787" d="M389.6,333.54l-1.506,4.92-6.511-1.251.509-1.633Z" transform="translate(61.522 200.818)" fill="#404b60"/>
    <path id="Path_1788" data-name="Path 1788" d="M392.774,338.577h0a.889.889,0,0,0,0,.212l-1.824,5.981-.679-.127-3.987-7.084.191-.636a2.566,2.566,0,0,0,.127-1.442.89.89,0,0,0-.382-.53l2.588-4.39a4.073,4.073,0,0,1,1.145,1.188,4.517,4.517,0,0,1,.615,3.309,5.56,5.56,0,0,1,.912-1.145Z" transform="translate(66.723 197.477)" fill="#404b60"/>
    <path id="Path_1789" data-name="Path 1789" d="M390.912,340.953l-5.832-1.124,1.824-5.938Z" transform="translate(65.445 201.21)" fill="#404b60"/>
    <path id="Path_1790" data-name="Path 1790" d="M388.213,328.878c-.467,1.4-1.1,3.372-1.612,5.005a1.781,1.781,0,0,0-.912.679,9.967,9.967,0,0,0-1.145,2.418c-1.782,0-5.26-.318-7.444-.551a7.948,7.948,0,0,1,.255-.954,10.987,10.987,0,0,1,4.009-6.257,7.063,7.063,0,0,1,6.193-.573Z" transform="translate(56.501 194.812)" fill="#404b60"/>
    <path id="Path_1791" data-name="Path 1791" d="M383.163,335.951v-.233c.339-1.145.149-1.845-.615-2.121a1.38,1.38,0,0,0-.657,0c.509-1.633,1.145-3.606,1.612-5.026a5.111,5.111,0,0,1,3.33,3.5C385.835,333.151,384.393,334.657,383.163,335.951Z" transform="translate(61.87 195.247)" fill="#404b60"/>
    <path id="Path_1792" data-name="Path 1792" d="M391.965,346.531h-.127l-8.038-1.612,3.1-5.069q1.082.891,1.909,1.718A14.978,14.978,0,0,1,391.965,346.531Z" transform="translate(64.011 207.89)" fill="#404b60"/>
    <path id="Path_1793" data-name="Path 1793" d="M386.094,337.251l-3.2,6.978a9.251,9.251,0,0,0-1.527,0,19.429,19.429,0,0,0-3.839.658l-.106-4.963a12.92,12.92,0,0,1,2.312-.106,11.5,11.5,0,0,1,2.8.509,14.7,14.7,0,0,1-3.521-3.1l6.363-.7a3.275,3.275,0,0,0,.361.4Z" transform="translate(56.86 204.169)" fill="#404b60"/>
    <path id="Path_1794" data-name="Path 1794" d="M394.312,330.871l-2.588,4.369-.4-.191c-.87-.255-1.485.212-1.866,1.4l-.3.976-7.508,2.121,1.485-4.793c1.23-1.294,2.672-2.778,3.733-3.86a5.9,5.9,0,0,1,.191,1.76,5.281,5.281,0,0,1,2.524-2.376,4.709,4.709,0,0,1,3.287,0,4.347,4.347,0,0,1,1.442.594Z" transform="translate(61.601 196.827)" fill="#404b60"/>
    <path id="Path_1795" data-name="Path 1795" d="M399.587,341.036c-.255.763-.509,1.485-.785,2.121h0L389.47,345.4a23,23,0,0,0,1.633-2.715,26.138,26.138,0,0,0,1.421-3.542,11.345,11.345,0,0,0,.573-2.821l5.345-3.987h0a6.087,6.087,0,0,1,1.188,1.782,9.227,9.227,0,0,1-.042,6.914Z" transform="translate(70.366 199.472)" fill="#404b60"/>
    <path id="Path_1796" data-name="Path 1796" d="M383,342.47Z" transform="translate(63.114 210.827)" fill="#8a8fa5"/>
    <path id="Path_1797" data-name="Path 1797" d="M384.007,338.076,376.86,333.3l.191-.954c2.121.233,5.663.551,7.465.551-.127.318-.233.679-.361,1.06A7.064,7.064,0,0,0,384.007,338.076Z" transform="translate(56.232 199.484)" fill="#8a8fa5"/>
    <path id="Path_1798" data-name="Path 1798" d="M385.434,340.505l-6.363.7a13.025,13.025,0,0,1-1.612-2.566,9.651,9.651,0,0,1-.785-5.769l7.147,4.772h0a7.7,7.7,0,0,0,1.612,2.863Z" transform="translate(55.866 200.066)" fill="#8a8fa5"/>
    <path id="Path_1799" data-name="Path 1799" d="M384.488,345.17a12.838,12.838,0,0,0-2.4-.954,10.724,10.724,0,0,0-2.312-.488l3.266-6.978.615.53Z" transform="translate(59.505 204.415)" fill="#8a8fa5"/>
    <path id="Path_1800" data-name="Path 1800" d="M388.281,342.22l-3.1,5.069h0a9.924,9.924,0,0,0-2.439-1.739l-.806-7.89a26.283,26.283,0,0,0,2.736,1.972,38.829,38.829,0,0,1,3.605,2.588Z" transform="translate(61.926 205.435)" fill="#8a8fa5"/>
    <path id="Path_1801" data-name="Path 1801" d="M390.913,344.193l-5.366,2.291a10.88,10.88,0,0,0-2.587-3.817v-.106h0Z" transform="translate(63.069 210.928)" fill="#8a8fa5"/>
    <path id="Path_1802" data-name="Path 1802" d="M398.064,337.63a22.2,22.2,0,0,1-1.23,2.566,20.066,20.066,0,0,1-2.8,3.712l-5.344-3.8v-.106Z" transform="translate(69.492 205.402)" fill="#8a8fa5"/>
    <path id="Path_1803" data-name="Path 1803" d="M397.865,333.567l-5.281,4.051c0-.87-.318-1.4-.891-1.569s-1.294.148-1.654,1.145l-1.379-4.687a4.794,4.794,0,0,1,1.824-1.124,6.129,6.129,0,0,1,3.839,0A8.038,8.038,0,0,1,397.865,333.567Z" transform="translate(69.458 198.054)" fill="#8a8fa5"/>
    <path id="Path_1804" data-name="Path 1804" d="M389.247,333.6l-1.527,4.92-6.49-1.251.509-1.633Z" transform="translate(61.13 200.885)" fill="#8a8fa5"/>
    <path id="Path_1805" data-name="Path 1805" d="M392.475,338.637h0v.212l-1.845,5.981-.657-.127-4.008-7.084.191-.636a2.567,2.567,0,0,0,.127-1.442.891.891,0,0,0-.382-.53l2.609-4.39a4.707,4.707,0,0,1,1.145,1.188,4.5,4.5,0,0,1,.594,3.309,6.363,6.363,0,0,1,.912-1.167Z" transform="translate(66.364 197.545)" fill="#8a8fa5"/>
    <path id="Path_1806" data-name="Path 1806" d="M390.574,341.024,384.72,339.9l1.845-5.96Z" transform="translate(65.042 201.266)" fill="#8a8fa5"/>
    <path id="Path_1807" data-name="Path 1807" d="M387.873,328.939c-.467,1.4-1.082,3.372-1.612,5.005a1.866,1.866,0,0,0-.912.679,9.31,9.31,0,0,0-1.124,2.418c-1.781,0-5.281-.318-7.465-.551a3.246,3.246,0,0,1,.276-.954,10.816,10.816,0,0,1,4.008-6.257,7,7,0,0,1,6.172-.573Z" transform="translate(56.12 194.878)" fill="#8a8fa5"/>
    <path id="Path_1808" data-name="Path 1808" d="M382.813,336.011v-.233c.361-1.145.148-1.845-.615-2.121a1.166,1.166,0,0,0-.657,0c.53-1.633,1.166-3.606,1.612-5.026a5.111,5.111,0,0,1,3.33,3.5C385.485,333.211,384.043,334.717,382.813,336.011Z" transform="translate(61.478 195.314)" fill="#8a8fa5"/>
    <path id="Path_1809" data-name="Path 1809" d="M391.627,346.6H391.5l-8.059-1.633,3.118-5.048q1.082.891,1.909,1.718a15.333,15.333,0,0,1,3.16,4.963Z" transform="translate(63.607 207.969)" fill="#8a8fa5"/>
    <path id="Path_1810" data-name="Path 1810" d="M385.7,337.311l-3.266,6.978a9.168,9.168,0,0,0-1.527,0,20.764,20.764,0,0,0-3.818.636v-4.942a12.554,12.554,0,0,1,2.29-.106,11.328,11.328,0,0,1,2.8.509,14.7,14.7,0,0,1-3.521-3.1l6.363-.7.382.4Z" transform="translate(56.49 204.236)" fill="#8a8fa5"/>
    <path id="Path_1811" data-name="Path 1811" d="M394.006,330.913l-2.694,4.369a1.081,1.081,0,0,0-.382-.191c-.891-.254-1.506.191-1.866,1.4l-.3.976-7.508,2.121,1.463-4.793c1.23-1.294,2.672-2.778,3.754-3.86a7.588,7.588,0,0,1,.191,1.76,5.154,5.154,0,0,1,2.5-2.375,5.494,5.494,0,0,1,4.751.679Z" transform="translate(61.164 196.913)" fill="#8a8fa5"/>
    <path id="Path_1812" data-name="Path 1812" d="M399.248,341.1c-.254.764-.53,1.485-.806,2.121h0l-9.332,2.248a18.437,18.437,0,0,0,1.633-2.715,26.143,26.143,0,0,0,1.421-3.542,9.694,9.694,0,0,0,.573-2.821c1.633-1.23,3.924-2.948,5.366-3.987h0a6.767,6.767,0,0,1,1.188,1.76A9.48,9.48,0,0,1,399.248,341.1Z" transform="translate(69.963 199.54)" fill="#8a8fa5"/>
    <path id="Path_1813" data-name="Path 1813" d="M487.139,311.845a.743.743,0,0,0-.106.17l-7.423,1.612a10.751,10.751,0,0,1,.318-1.1,9.14,9.14,0,0,1,2.312-3.754Z" transform="translate(171.401 173.054)" fill="#353645"/>
    <path id="Path_1814" data-name="Path 1814" d="M489.909,318.739a6.614,6.614,0,0,1-.933.212,9.48,9.48,0,0,1-4.5-.509,9.184,9.184,0,0,1-4.03-2.5l4.433-2.969a1.442,1.442,0,0,0,1.039,1.1,1.654,1.654,0,0,0,1.676-.233Z" transform="translate(172.343 177.761)" fill="#353645"/>
    <path id="Path_1815" data-name="Path 1815" d="M492.5,310.1l-2.587,7.614a7.888,7.888,0,0,1-2.121,3.372,6.364,6.364,0,0,1-1.633,1.081l-.509-10.6Z" transform="translate(178.171 174.544)" fill="#353645"/>
    <path id="Path_1816" data-name="Path 1816" d="M492.99,310.189l-.679,1.994-6.872,1.379v-.636l1.336-3.945,6.723-1.23A8.737,8.737,0,0,1,492.99,310.189Z" transform="translate(177.936 171.91)" fill="#353645"/>
    <path id="Path_1817" data-name="Path 1817" d="M487.462,308.8l-5.641-.891,5.875-.615A7.631,7.631,0,0,0,487.462,308.8Z" transform="translate(173.878 171.395)" fill="#353645"/>
    <path id="Path_1818" data-name="Path 1818" d="M487.422,309.844l-5.875.615h-.17a8.807,8.807,0,0,1,.382-3.1,6.364,6.364,0,0,1,1.994-2.927.382.382,0,0,1,.148-.106l3.775,4.708v.191a3.857,3.857,0,0,0-.255.615Z" transform="translate(173.367 168.077)" fill="#353645"/>
    <path id="Path_1819" data-name="Path 1819" d="M489.939,304.395l-1.463,4.242a1.506,1.506,0,0,0-1.145.127,2.121,2.121,0,0,0-.785.976l-3.775-4.708a6.024,6.024,0,0,1,3.16-1.188A9.757,9.757,0,0,1,489.939,304.395Z" transform="translate(174.943 167.503)" fill="#353645"/>
    <path id="Path_1820" data-name="Path 1820" d="M490.813,306.536l-4.56,2.524a1.847,1.847,0,0,0-.573-.318h-.191l1.463-4.242h.212a9.862,9.862,0,0,1,3.648,2.036Z" transform="translate(177.992 168.268)" fill="#353645"/>
    <path id="Path_1821" data-name="Path 1821" d="M486.31,311.317l.445-1.273c.339-1.039.276-1.781-.233-2.121l4.56-2.524a6.68,6.68,0,0,1,1.23,1.591,6.087,6.087,0,0,1,.721,3.2Z" transform="translate(178.911 169.276)" fill="#353645"/>
    <path id="Path_1822" data-name="Path 1822" d="M486.576,310.509V310l-.233.679-1.633,4.772a3.224,3.224,0,0,1-.87,1.442l2.291,4.793.976-.361Z" transform="translate(176.142 174.432)" fill="#353645"/>
    <path id="Path_1823" data-name="Path 1823" d="M485.892,315.1h0l-4.433,2.948a8.008,8.008,0,0,1-.848-1.188,6.553,6.553,0,0,1-.594-4.645l7.4-1.612a10.964,10.964,0,0,0-1.23,2.5,4.582,4.582,0,0,0-.3,1.994Z" transform="translate(171.651 175.105)" fill="#353645"/>
    <path id="Path_1824" data-name="Path 1824" d="M486.9,312.015l-.127.17-7.4,1.612a3.721,3.721,0,0,1,.3-1.1,9.375,9.375,0,0,1,2.312-3.754Z" transform="translate(171.132 173.244)" fill="#8a8fa5"/>
    <path id="Path_1825" data-name="Path 1825" d="M489.68,318.9a6.641,6.641,0,0,1-.933.212,9.481,9.481,0,0,1-4.5-.509,9.183,9.183,0,0,1-4.051-2.5l4.454-2.948a1.442,1.442,0,0,0,1.039,1.1,1.612,1.612,0,0,0,1.654-.233Z" transform="translate(172.063 177.963)" fill="#8a8fa5"/>
    <path id="Path_1826" data-name="Path 1826" d="M492.249,310.27l-2.587,7.635a7.783,7.783,0,0,1-2.121,3.351,6.364,6.364,0,0,1-1.612,1.082l-.509-10.6Z" transform="translate(177.913 174.735)" fill="#8a8fa5"/>
    <path id="Path_1827" data-name="Path 1827" d="M492.77,310.38l-.679,1.972-6.872,1.379v-.636l1.357-3.945,6.7-1.23A8.953,8.953,0,0,1,492.77,310.38Z" transform="translate(177.689 172.101)" fill="#8a8fa5"/>
    <path id="Path_1828" data-name="Path 1828" d="M487.222,308.955l-5.642-.891,5.875-.594A7.438,7.438,0,0,0,487.222,308.955Z" transform="translate(173.609 171.596)" fill="#8a8fa5"/>
    <path id="Path_1829" data-name="Path 1829" d="M487.191,309.991l-5.875.594h-.148a8.676,8.676,0,0,1,.382-3.1,6.171,6.171,0,0,1,1.972-2.948h.148l3.8,4.708v.191C487.191,309.545,487.191,309.757,487.191,309.991Z" transform="translate(173.131 168.312)" fill="#8a8fa5"/>
    <path id="Path_1830" data-name="Path 1830" d="M489.71,304.566l-1.463,4.242a1.485,1.485,0,0,0-1.145.127,2.121,2.121,0,0,0-.785.976l-3.8-4.708a6.362,6.362,0,0,1,3.139-1.188A9.755,9.755,0,0,1,489.71,304.566Z" transform="translate(174.663 167.692)" fill="#8a8fa5"/>
    <path id="Path_1831" data-name="Path 1831" d="M490.523,306.727l-4.56,2.5a1.844,1.844,0,0,0-.573-.318H485.2l1.442-4.242h.233a9.755,9.755,0,0,1,3.648,2.057Z" transform="translate(177.667 168.458)" fill="#8a8fa5"/>
    <path id="Path_1832" data-name="Path 1832" d="M486.07,311.532l.424-1.272c.361-1.039.3-1.782-.212-2.227l4.56-2.5a6.193,6.193,0,0,1,1.951,4.772Z" transform="translate(178.642 169.422)" fill="#8a8fa5"/>
    <path id="Path_1833" data-name="Path 1833" d="M486.325,310.756v-.636l-.233.679-1.612,4.772a3.288,3.288,0,0,1-.87,1.442l2.29,4.793a7.67,7.67,0,0,0,.976-.361Z" transform="translate(175.885 174.567)" fill="#8a8fa5"/>
    <path id="Path_1834" data-name="Path 1834" d="M485.653,315.266h0l-4.433,2.948a6.718,6.718,0,0,1-.848-1.188,6.532,6.532,0,0,1-.594-4.645l7.4-1.612a11.405,11.405,0,0,0-1.23,2.5,4.242,4.242,0,0,0-.3,1.994Z" transform="translate(171.381 175.295)" fill="#8a8fa5"/>
    <path id="Path_1835" data-name="Path 1835" d="M343.578,353.65l.361,1.506c-.382.424-.785.848-1.209,1.251Z" transform="translate(17.977 223.358)" fill="#353645"/>
    <path id="Path_1836" data-name="Path 1836" d="M344.761,347.29l-8.971,4.645-.869-2.227Z" transform="translate(9.223 216.229)" fill="#353645"/>
    <path id="Path_1837" data-name="Path 1837" d="M339.874,356.608l-.191-.742-3.224.785-1.569-3.966,8.971-4.624,2.948-.721Z" transform="translate(9.189 216.285)" fill="#353645"/>
    <path id="Path_1838" data-name="Path 1838" d="M345.791,346.6l2.269,9.289-9.374,1.251-.276-1.188,6.935-9.247Z" transform="translate(13.134 215.456)" fill="#353645"/>
    <path id="Path_1839" data-name="Path 1839" d="M340.38,356.1,333.4,362.74l-.912-.318,3.563-7.932a4.687,4.687,0,0,0,1.591,1.315,4.814,4.814,0,0,0,2.736.3Z" transform="translate(6.499 224.3)" fill="#353645"/>
    <path id="Path_1840" data-name="Path 1840" d="M350.528,358.9c-.509.339-1.018.679-1.569,1a23.094,23.094,0,0,1-6.087,2.5,17.858,17.858,0,0,1-9.5,0l6.978-6.638.721.064a7.253,7.253,0,0,0,3.054-1.569Z" transform="translate(7.485 224.042)" fill="#353645"/>
    <path id="Path_1841" data-name="Path 1841" d="M341.084,359.608l-3.563,7.911a9.988,9.988,0,0,1-2.29-1.251q-4.835-3.372-6.893-11.771a23.024,23.024,0,0,1-.658-4.5l11.219,4.942a19.092,19.092,0,0,0,1.273,3.245A9.691,9.691,0,0,0,341.084,359.608Z" transform="translate(1.108 219.267)" fill="#353645"/>
    <path id="Path_1842" data-name="Path 1842" d="M337.919,349.158h0l-9.989.212a13.913,13.913,0,0,1,3.478-4.73,16.133,16.133,0,0,1,3.563-2.46Z" transform="translate(1.388 210.502)" fill="#353645"/>
    <path id="Path_1843" data-name="Path 1843" d="M346.2,343.335l-3.436,5.917c-.233,0-.445-.191-.679-.254-1.909-1.845-5.3-5.069-7.614-7.232a17.117,17.117,0,0,1,5.938-.233A17.942,17.942,0,0,1,346.2,343.335Z" transform="translate(8.718 209.601)" fill="#353645"/>
    <path id="Path_1844" data-name="Path 1844" d="M343.957,348.437a13.975,13.975,0,0,0-2.863-.785,9.18,9.18,0,0,0-3.266.212,6.6,6.6,0,0,0-3.5,2.121l-2.948-6.978a20.5,20.5,0,0,1,4.242-1.569l.679-.148C338.633,343.39,342.048,346.592,343.957,348.437Z" transform="translate(5.255 209.504)" fill="#353645"/>
    <path id="Path_1845" data-name="Path 1845" d="M338.646,345.77a6.368,6.368,0,0,0-1.018,1.76,13.955,13.955,0,0,0,0,8.208c.254,1.018.509,1.951.785,2.8l-11.219-4.963a16.754,16.754,0,0,1,.509-5.111,15.581,15.581,0,0,1,.87-2.482Z" transform="translate(0.534 214.526)" fill="#353645"/>
    <path id="Path_1846" data-name="Path 1846" d="M347.283,351.21l1.294,5.281-.848,2.757a20.846,20.846,0,0,1-2.354,1.888l-6.49-4.73h0l-.954-3.945Z" transform="translate(12.596 220.623)" fill="#353645"/>
    <path id="Path_1847" data-name="Path 1847" d="M343.08,353.83l.361,1.485a13.664,13.664,0,0,1-1.23,1.251Z" transform="translate(17.394 223.56)" fill="#8a8fa5"/>
    <path id="Path_1848" data-name="Path 1848" d="M344.262,347.47l-8.971,4.623-.891-2.227Z" transform="translate(8.64 216.431)" fill="#8a8fa5"/>
    <path id="Path_1849" data-name="Path 1849" d="M339.343,356.778l-.17-.742-3.224.785-1.569-3.945,8.971-4.645,2.948-.721Z" transform="translate(8.617 216.476)" fill="#8a8fa5"/>
    <path id="Path_1850" data-name="Path 1850" d="M345.271,346.77l2.269,9.289-9.353,1.273-.3-1.188,6.956-9.268Z" transform="translate(12.552 215.647)" fill="#8a8fa5"/>
    <path id="Path_1851" data-name="Path 1851" d="M339.848,356.261l-6.956,6.638a2.924,2.924,0,0,1-.912-.318l3.563-7.911a4.243,4.243,0,0,0,1.591,1.294,4.6,4.6,0,0,0,2.715.3Z" transform="translate(5.927 224.502)" fill="#8a8fa5"/>
    <path id="Path_1852" data-name="Path 1852" d="M350.068,359.12l-1.569,1a22.394,22.394,0,0,1-6.087,2.5,17.646,17.646,0,0,1-9.5.106l6.978-6.638.615-.127a7.253,7.253,0,0,0,3.054-1.569Z" transform="translate(6.97 224.188)" fill="#8a8fa5"/>
    <path id="Path_1853" data-name="Path 1853" d="M340.614,359.778l-3.563,7.911a11.5,11.5,0,0,1-2.312-1.23c-3.2-2.269-5.514-6.193-6.872-11.771a23.461,23.461,0,0,1-.657-4.517l11.2,4.963a21.546,21.546,0,0,0,1.294,3.224A9.683,9.683,0,0,0,340.614,359.778Z" transform="translate(0.581 219.458)" fill="#8a8fa5"/>
    <path id="Path_1854" data-name="Path 1854" d="M337.409,349.349h0l-9.989.191a14.337,14.337,0,0,1,3.457-4.73,16.8,16.8,0,0,1,3.584-2.46Z" transform="translate(0.816 210.692)" fill="#8a8fa5"/>
    <path id="Path_1855" data-name="Path 1855" d="M345.718,343.505l-3.436,5.917-.679-.254c-1.909-1.845-5.323-5.048-7.614-7.232a17.093,17.093,0,0,1,5.938-.233,18.471,18.471,0,0,1,5.79,1.8Z" transform="translate(8.18 209.791)" fill="#8a8fa5"/>
    <path id="Path_1856" data-name="Path 1856" d="M343.447,348.607a13.782,13.782,0,0,0-2.863-.763,8.291,8.291,0,0,0-3.266.212,6.362,6.362,0,0,0-3.5,2.121l-2.948-7a20.083,20.083,0,0,1,4.242-1.569l.679-.148Z" transform="translate(4.683 209.695)" fill="#8a8fa5"/>
    <path id="Path_1857" data-name="Path 1857" d="M338.1,346a6.53,6.53,0,0,0-1.039,1.76,13.976,13.976,0,0,0,.106,8.208c.254,1.018.509,1.93.763,2.778L326.709,353.8a17.579,17.579,0,0,1,.53-5.133,13.735,13.735,0,0,1,.87-2.482Z" transform="translate(0 214.783)" fill="#8a8fa5"/>
    <path id="Path_1858" data-name="Path 1858" d="M346.784,351.38l1.294,5.281-.848,2.757a18.725,18.725,0,0,1-2.354,1.888l-6.511-4.708h0l-.954-3.924Z" transform="translate(12.014 220.814)" fill="#8a8fa5"/>
    <path id="Path_1859" data-name="Path 1859" d="M363.838,385.1l-8.483,4.581a10.6,10.6,0,0,1-1.166-4.072,14.676,14.676,0,0,1,3.881-10.6l6.49,7.953h0a18.968,18.968,0,0,0-.721,2.142Z" transform="translate(30.803 247.289)" fill="#353645"/>
    <path id="Path_1860" data-name="Path 1860" d="M365.647,390.142l-.127.276-9.608,4.242a12.068,12.068,0,0,1-.721-1.824,8.971,8.971,0,0,1,.552-6.363,13.634,13.634,0,0,1,.891-1.633Z" transform="translate(31.56 258.318)" fill="#353645"/>
    <path id="Path_1861" data-name="Path 1861" d="M365.277,393.032l-4.411,6.087a21.059,21.059,0,0,1-3.478-2.63,13.509,13.509,0,0,1-2.927-3.818l9.586-4.242h0a3.478,3.478,0,0,0,.043,3.33,4.558,4.558,0,0,0,1.188,1.273Z" transform="translate(31.124 262.342)" fill="#353645"/>
    <path id="Path_1862" data-name="Path 1862" d="M375.864,395.389a10.477,10.477,0,0,1-4.348,4.984,11.833,11.833,0,0,1-6.214,1.463l-.912-8.759a5.3,5.3,0,0,0,2.121-2.566,5.6,5.6,0,0,0,.552-2.121l8.632.212a8.292,8.292,0,0,1,.573,1.421,7.868,7.868,0,0,1-.4,5.366Z" transform="translate(42.255 262.297)" fill="#353645"/>
    <path id="Path_1863" data-name="Path 1863" d="M372.329,390.738a9.4,9.4,0,0,1,2.821,3.245l-8.632-.212a3.139,3.139,0,0,0-2.121-2.99l-.467-.212,3.69-5.641.573.254a2.906,2.906,0,0,0,2.969,0,5.748,5.748,0,0,0,1.781-2.121l5.09,7.169a10.987,10.987,0,0,1-5.705.509Z" transform="translate(41.739 256.323)" fill="#353645"/>
    <path id="Path_1864" data-name="Path 1864" d="M379.358,386.884a9.756,9.756,0,0,1-4.454,5.154l-.594.255-5.09-7.169a9.965,9.965,0,0,0,.594-1.167c.127-.276.233-.551.34-.827l10.138-1.93a.6.6,0,0,0,0,.191,11.069,11.069,0,0,1-.933,5.493Z" transform="translate(47.668 254.238)" fill="#353645"/>
    <path id="Path_1865" data-name="Path 1865" d="M366.143,380.766c-1.23.254-2.354,1.548-3.393,3.881l-6.49-7.953a12.729,12.729,0,0,1,1.379-1.23,11.346,11.346,0,0,1,5.9-2.248,12.719,12.719,0,0,1,2.969,0Z" transform="translate(33.142 245.192)" fill="#353645"/>
    <path id="Path_1866" data-name="Path 1866" d="M367,374.986l-3.118,6.66a2.439,2.439,0,0,0-1.1-.869,2.566,2.566,0,0,0-1.463-.191l.36-7.465a15,15,0,0,1,3.987,1.209C366.092,374.52,366.537,374.732,367,374.986Z" transform="translate(38.814 245.182)" fill="#353645"/>
    <path id="Path_1867" data-name="Path 1867" d="M365.608,384.51l-3.1,6.6-.954-.4a14.507,14.507,0,0,1-5.663-4.242,11.189,11.189,0,0,1-1.124-1.76l8.483-4.581a5.43,5.43,0,0,0-.254,2.121,2.375,2.375,0,0,0,1.506,2.121,2.97,2.97,0,0,0,1.1.148Z" transform="translate(31.472 253.028)" fill="#353645"/>
    <path id="Path_1868" data-name="Path 1868" d="M367.05,397.035a10.368,10.368,0,0,1-2.333.509,12.979,12.979,0,0,1-5.917-.891l3.1-6.6a2.439,2.439,0,0,0,1.4-.53A12.556,12.556,0,0,0,366.647,382a2.355,2.355,0,0,0-.4-1.23l3.118-6.638.7.4Z" transform="translate(35.989 246.314)" fill="#353645"/>
    <path id="Path_1869" data-name="Path 1869" d="M380.034,379.981l-5.154,5.578-.467-.276a5.515,5.515,0,0,0-3.054-.382,15.165,15.165,0,0,1-1.273,4.348,14.018,14.018,0,0,1-3.86,5.239,10.1,10.1,0,0,1-3.287,1.845l3.012-22.5a12.131,12.131,0,0,1,4.475,4.814,13.4,13.4,0,0,1,8.78.933Z" transform="translate(40.629 245.977)" fill="#353645"/>
    <path id="Path_1870" data-name="Path 1870" d="M378.9,385.6l-10.138,1.909c.763-2.121.53-3.669-.764-4.5l5.154-5.557a11.009,11.009,0,0,1,3.8,3.2A10.2,10.2,0,0,1,378.9,385.6Z" transform="translate(46.301 250.046)" fill="#353645"/>
    <path id="Path_1871" data-name="Path 1871" d="M370.776,399.242h-.488a23.33,23.33,0,0,1-8.271-2.121,27.867,27.867,0,0,1-3.457-1.824l4.411-6.087a9.231,9.231,0,0,0,2.121,1.209,5.536,5.536,0,0,0,4.242.4,4.136,4.136,0,0,0,.636-.276Z" transform="translate(35.72 263.216)" fill="#353645"/>
    <path id="Path_1872" data-name="Path 1872" d="M363.253,385.183l-8.483,4.581a10.243,10.243,0,0,1-1.145-4.072,13.658,13.658,0,0,1,1.273-6.66,13.383,13.383,0,0,1,2.609-3.9l6.49,7.953h0A15.408,15.408,0,0,0,363.253,385.183Z" transform="translate(30.158 247.434)" fill="#8a8fa5"/>
    <path id="Path_1873" data-name="Path 1873" d="M365.049,390.263l-.127.276-9.586,4.242a9.8,9.8,0,0,1-.721-1.845,9.014,9.014,0,0,1,.53-6.363,13.854,13.854,0,0,1,.912-1.633Z" transform="translate(30.907 258.43)" fill="#8a8fa5"/>
    <path id="Path_1874" data-name="Path 1874" d="M364.717,393.142l-4.411,6.087a22.094,22.094,0,0,1-3.457-2.63,13.234,13.234,0,0,1-2.948-3.818l9.607-4.242h0a3.415,3.415,0,0,0,.106,3.266A4.814,4.814,0,0,0,364.717,393.142Z" transform="translate(30.497 262.465)" fill="#8a8fa5"/>
    <path id="Path_1875" data-name="Path 1875" d="M375.3,395.51a10.478,10.478,0,0,1-4.348,4.984,11.876,11.876,0,0,1-6.214,1.463L363.8,393.2a5.3,5.3,0,0,0,2.121-2.587,5.364,5.364,0,0,0,.53-2.121l8.653.212a6.8,6.8,0,0,1,.552,1.421A7.868,7.868,0,0,1,375.3,395.51Z" transform="translate(41.593 262.409)" fill="#8a8fa5"/>
    <path id="Path_1876" data-name="Path 1876" d="M371.772,390.892a9.479,9.479,0,0,1,2.842,3.245l-8.653-.212a2.823,2.823,0,0,0-.148-.954,3.351,3.351,0,0,0-2.015-2.121l-.488-.212L367.022,385l.573.254a2.906,2.906,0,0,0,2.969,0,5.706,5.706,0,0,0,1.76-2.121l5.09,7.169a11.2,11.2,0,0,1-5.641.594Z" transform="translate(41.044 256.401)" fill="#8a8fa5"/>
    <path id="Path_1877" data-name="Path 1877" d="M378.8,386.993a9.8,9.8,0,0,1-4.433,5.175l-.594.255-5.09-7.169c.191-.339.382-.742.573-1.166a8.473,8.473,0,0,0,.339-.827l10.138-1.93a.594.594,0,0,1,0,.191A10.731,10.731,0,0,1,378.8,386.993Z" transform="translate(47.063 254.384)" fill="#8a8fa5"/>
    <path id="Path_1878" data-name="Path 1878" d="M365.553,380.88c-1.209.254-2.333,1.548-3.393,3.881l-6.49-7.953a11.167,11.167,0,0,1,1.4-1.23,11.283,11.283,0,0,1,5.9-2.248,11.492,11.492,0,0,1,2.948,0Z" transform="translate(32.481 245.311)" fill="#8a8fa5"/>
    <path id="Path_1879" data-name="Path 1879" d="M366.415,375.086l-3.118,6.66a2.566,2.566,0,0,0-1.1-.87,2.291,2.291,0,0,0-1.485-.191l.361-7.465a15.126,15.126,0,0,1,4.008,1.209C365.567,374.641,365.991,374.874,366.415,375.086Z" transform="translate(38.13 245.294)" fill="#8a8fa5"/>
    <path id="Path_1880" data-name="Path 1880" d="M365.039,384.62l-3.1,6.6-.954-.4a14.506,14.506,0,0,1-5.663-4.242,11.35,11.35,0,0,1-1.145-1.76l8.483-4.581a5.982,5.982,0,0,0-.276,2.121,2.4,2.4,0,0,0,1.506,2.121,3.161,3.161,0,0,0,1.145.148Z" transform="translate(30.811 253.151)" fill="#8a8fa5"/>
    <path id="Path_1881" data-name="Path 1881" d="M366.47,397.105a10.609,10.609,0,0,1-2.333.509,12.939,12.939,0,0,1-5.917-.891l3.075-6.6a2.333,2.333,0,0,0,1.4-.53,8.908,8.908,0,0,0,2.312-3.436,9.373,9.373,0,0,0,1.06-4.093,2.375,2.375,0,0,0-.424-1.23l3.118-6.638.721.4Z" transform="translate(35.339 246.392)" fill="#8a8fa5"/>
    <path id="Path_1882" data-name="Path 1882" d="M379.507,380.147l-5.2,5.578a3.624,3.624,0,0,0-.488-.276,5.409,5.409,0,0,0-3.033-.382,15.163,15.163,0,0,1-1.272,4.242,14.254,14.254,0,0,1-3.86,5.239,10.306,10.306,0,0,1-3.287,1.845l3.012-22.5a11.92,11.92,0,0,1,4.454,4.814,13.468,13.468,0,0,1,8.8.933Z" transform="translate(39.99 246.045)" fill="#8a8fa5"/>
    <path id="Path_1883" data-name="Path 1883" d="M378.3,385.693l-10.138,1.93c.785-2.121.53-3.669-.742-4.5l5.154-5.557a11.218,11.218,0,0,1,3.8,3.2A9.99,9.99,0,0,1,378.3,385.693Z" transform="translate(45.651 250.169)" fill="#8a8fa5"/>
    <path id="Path_1884" data-name="Path 1884" d="M370.175,399.352h-.467a23.325,23.325,0,0,1-8.271-2.121,31.048,31.048,0,0,1-3.457-1.824l4.411-6.087a9.034,9.034,0,0,0,2.015,1.209,5.536,5.536,0,0,0,4.242.4,3.6,3.6,0,0,0,.657-.276Z" transform="translate(35.07 263.34)" fill="#8a8fa5"/>
  </g>
</svg>
